<?xml version="1.0" standalone="no"?>
<!DOCTYPE svg PUBLIC "-//W3C//DTD SVG 20010904//EN"
 "http://www.w3.org/TR/2001/REC-SVG-20010904/DTD/svg10.dtd">
<svg version="1.0" xmlns="http://www.w3.org/2000/svg"
 width="59.000000pt" height="58.000000pt" viewBox="0 0 59.000000 58.000000"
 preserveAspectRatio="xMidYMid meet">

<g transform="translate(0.000000,58.000000) scale(0.100000,-0.100000)"
fill="#000000" stroke="none">
<path d="M288 447 c-53 -36 -54 -45 -10 -110 18 -27 27 -56 30 -97 4 -55 6
-58 34 -64 17 -3 44 1 64 9 20 8 40 14 47 12 6 -1 12 3 12 8 1 6 7 23 13 38
21 50 10 112 -30 170 -18 25 -86 68 -105 66 -4 0 -29 -15 -55 -32z m132 -48
c-46 -19 -51 -46 -15 -85 31 -33 26 -40 -13 -20 -66 34 -50 117 22 115 31 0
31 0 6 -10z"/>
<path d="M166 365 c-65 -45 -70 -56 -56 -117 25 -101 130 -166 229 -139 25 7
61 24 79 38 38 29 37 43 -2 18 -29 -20 -110 -22 -161 -5 -70 23 -99 135 -55
208 11 17 19 32 17 31 -1 0 -24 -16 -51 -34z"/>
<path d="M526 255 c-50 -134 -118 -188 -238 -187 -63 0 -78 -12 -25 -21 48 -8
126 10 168 38 61 40 116 130 106 172 -4 17 -4 17 -11 -2z"/>
</g>
</svg>
